<?xml version="1.0" encoding="utf-8"?>
<!-- Generator: Adobe Illustrator 21.1.0, SVG Export Plug-In . SVG Version: 6.00 Build 0)  -->
<svg version="1.1" id="Capa_1" xmlns="http://www.w3.org/2000/svg" xmlns:xlink="http://www.w3.org/1999/xlink" x="0px" y="0px"
	 viewBox="0 0 512 512" style="enable-background:new 0 0 512 512;" xml:space="preserve">
<style type="text/css">
	.st0{fill:#111010;}
</style>
<path class="st0" d="M413.8,175.2c0.1-9.7-0.6-19.5-2.1-29.3l-2.4-15.2l-16.6,2.7c-17.4,2.8-34,8.2-49.4,15.8
	c5.9,14.6,10.3,29.9,13.1,45.6C374.2,185.6,393.5,178.9,413.8,175.2L413.8,175.2z"/>
<path class="st0" d="M50.6,339.3c-14.9,7.2-28.7,16.9-40.8,28.9L0,377.8l8.7,8.9c43.5,44.2,107.5,56.2,162.2,36
	C121.5,410,79.1,379.9,50.6,339.3L50.6,339.3z"/>
<path class="st0" d="M157,194.8c2.8-15.6,7.3-30.7,13.2-45.2c-15.6-7.9-32.5-13.4-50.2-16.3l-16.6-2.7l-2.4,15.2
	c-1.6,9.8-2.3,19.6-2.2,29.2C119.4,178.8,139,185.6,157,194.8L157,194.8z"/>
<path class="st0" d="M470.8,218.5v-17h-18.5c-33.8,0-65.4,9.3-92.5,25.5c0.1,2.8,0.2,5.6,0.2,8.4c0,61.4-23.9,119.2-67.4,162.6
	l-1.1,1.1C390.5,398.5,470.8,317.7,470.8,218.5L470.8,218.5z"/>
<path class="st0" d="M502.2,368.1c-11.9-11.7-25.4-21.3-39.9-28.4c-28.7,40.6-71.3,70.7-120.9,83.1c17.1,6.3,35.3,9.5,54,9.4
	c40.9-0.3,79.1-16.5,107.8-45.6l8.7-8.9L502.2,368.1z"/>
<path class="st0" d="M271.4,94l-14.2-14.2l-15.4,15.4c-37.8,37.8-58.6,88-58.6,141.5c0,53.4,20.8,103.7,58.6,141.5l14.2,14.2
	l15.4-15.4c37.8-37.8,58.6-88,58.6-141.5C330,182,309.2,131.8,271.4,94L271.4,94z"/>
<path class="st0" d="M153.4,227.1c-27.1-16.2-58.7-25.5-92.5-25.5H42.4v17c0,98.8,79.7,179.3,178.1,180.7
	c-43.4-43.4-67.3-101.2-67.3-162.6C153.2,233.5,153.3,230.3,153.4,227.1z"/>
</svg>
